<?xml version="1.0" encoding="UTF-8" standalone="no"?>
<svg width="405px" height="131px" viewBox="0 0 405 131" version="1.1" xmlns="http://www.w3.org/2000/svg" xmlns:xlink="http://www.w3.org/1999/xlink">
    <!-- Generator: Sketch 3.8.3 (29802) - http://www.bohemiancoding.com/sketch -->
    <title>logo</title>
    <desc>Created with Sketch.</desc>
    <defs></defs>
    <g id="Page-1" stroke="none" stroke-width="1" fill="none" fill-rule="evenodd">
        <g id="logo" fill="#FFFFFF">
            <g id="Group" transform="translate(63.000000, 0.000000)">
                <rect id="Rectangle-path" x="29.245" y="0.294" width="12.975" height="25.178"></rect>
                <path d="M156.435,35.348 L89.719,2.502 C89.719,2.502 86.168,0.317 81.047,0.317 C81.035,0.317 81.025,0.319 81.013,0.319 C81.001,0.319 80.991,0.317 80.979,0.317 C75.858,0.317 72.307,2.502 72.307,2.502 L5.591,35.348 C5.591,35.348 0.674,37.533 0.674,42.177 C0.674,46.82 7.776,52.829 24.71,47.366 L80.978,20.052 L81.012,19.984 L81.046,20.052 L137.314,47.366 C154.249,52.829 161.35,46.82 161.35,42.177 C161.351,37.533 156.435,35.348 156.435,35.348 L156.435,35.348 Z" id="Shape"></path>
            </g>
            <g id="Group" transform="translate(0.000000, 24.000000)">
                <path d="M43.962,8.025 C38.909,3.353 31.18,0.983 20.988,0.983 C13.926,0.983 7.216,1.52 1.04,2.579 L0.359,2.696 L0.359,85.365 L12.317,85.365 L12.317,52.666 C14.697,53.127 17.406,53.194 19.802,53.194 C30.478,53.194 39.37,49.897 44.831,43.92 C49.072,39.435 51.223,33.341 51.223,25.81 C51.224,18.502 48.641,12.183 43.962,8.025 L43.962,8.025 Z M20.04,43.024 C16.829,43.024 14.293,42.802 12.318,42.352 L12.318,11.708 C14.301,11.281 17.552,11.031 21.225,11.031 C32.859,11.031 39.266,16.452 39.266,26.296 C39.266,36.927 32.258,43.024 20.04,43.024 L20.04,43.024 Z" id="Shape"></path>
                <path d="M56.188,63.707 C56.478,72.48 63.175,76.27 70.743,76.27 C76.275,76.27 80.254,75.47 83.844,74.078 L85.592,82.551 C81.516,84.25 75.887,85.543 69.094,85.543 C53.761,85.543 44.735,75.869 44.735,61.015 C44.735,47.553 52.693,34.89 67.832,34.89 C83.165,34.89 88.211,47.853 88.211,58.522 C88.211,60.816 88.017,62.611 87.823,63.708 L56.188,63.708 L56.188,63.707 L56.188,63.707 Z M76.955,55.13 C77.052,50.645 75.111,43.265 67.154,43.265 C59.779,43.265 56.675,50.142 56.189,55.13 L76.955,55.13 L76.955,55.13 Z" id="Shape"></path>
                <path d="M92.33,50.443 C92.33,44.859 92.234,40.172 91.943,35.985 L102.423,35.985 L103.005,43.265 L103.296,43.265 C105.333,39.475 110.478,34.889 118.338,34.889 C126.586,34.889 135.127,40.373 135.127,55.73 L135.127,84.546 L123.19,84.546 L123.19,57.125 C123.19,50.144 120.667,44.859 114.166,44.859 C109.41,44.859 106.111,48.349 104.85,52.041 C104.461,53.138 104.366,54.633 104.366,56.028 L104.366,84.547 L92.33,84.547 L92.33,50.443 L92.33,50.443 Z" id="Shape"></path>
                <path d="M140.729,50.443 C140.729,44.859 140.632,40.172 140.341,35.985 L150.82,35.985 L151.403,43.265 L151.694,43.265 C153.731,39.475 158.875,34.889 166.736,34.889 C174.984,34.889 183.525,40.373 183.525,55.73 L183.525,84.546 L171.587,84.546 L171.587,57.125 C171.587,50.144 169.064,44.859 162.562,44.859 C157.806,44.859 154.508,48.349 153.247,52.041 C152.858,53.138 152.763,54.633 152.763,56.028 L152.763,84.547 L140.729,84.547 L140.729,50.443 L140.729,50.443 Z" id="Shape"></path>
                <path d="M196.331,35.985 L204.872,62.011 C205.843,65.001 206.812,68.691 207.491,71.484 L207.781,71.484 C208.557,68.691 209.432,65.101 210.305,61.912 L217.68,35.985 L230.49,35.985 L218.651,69.091 C212.149,87.237 207.781,95.316 202.154,100.3 C197.498,104.587 192.643,106.181 189.635,106.581 L186.918,96.208 C188.955,95.712 191.479,94.616 193.904,92.819 C196.136,91.325 198.756,88.431 200.405,85.141 C200.889,84.246 201.182,83.543 201.182,82.948 C201.182,82.45 201.085,81.753 200.503,80.553 L183.23,35.983 L196.331,35.985 L196.331,35.985 L196.331,35.985 Z" id="Shape"></path>
                <path d="M287.256,57.125 C286.869,48.449 286.383,37.979 286.481,28.907 L286.191,28.907 C284.055,37.084 281.338,46.158 278.424,54.633 L268.916,83.748 L259.694,83.748 L250.963,55.029 C248.44,46.455 246.11,37.281 244.364,28.905 L244.168,28.905 C243.879,37.68 243.489,48.349 243.006,57.521 L241.551,84.544 L230.393,84.544 L234.758,17.337 L250.477,17.337 L259.017,44.36 C261.347,52.236 263.383,60.214 265.036,67.693 L265.327,67.693 C267.071,60.413 269.306,52.137 271.829,44.26 L280.852,17.337 L296.377,17.337 L300.162,84.544 L288.517,84.544 L287.256,57.125 L287.256,57.125 Z" id="Shape"></path>
                <path d="M332.961,84.546 L332.185,79.161 L331.895,79.161 C328.983,82.95 324.032,85.641 317.92,85.641 C308.408,85.641 303.071,78.561 303.071,71.182 C303.071,58.92 313.648,52.734 331.117,52.834 L331.117,52.039 C331.117,48.849 329.853,43.564 321.508,43.564 C316.853,43.564 312,45.056 308.797,47.151 L306.469,39.174 C309.961,36.979 316.076,34.886 323.547,34.886 C338.688,34.886 343.053,44.755 343.053,55.325 L343.053,72.874 C343.053,77.265 343.246,81.552 343.734,84.542 L332.962,84.542 L332.962,84.546 L332.961,84.546 Z M331.409,60.814 C322.968,60.617 314.911,62.507 314.911,69.888 C314.911,74.673 317.921,76.867 321.704,76.867 C326.458,76.867 329.954,73.678 331.019,70.185 C331.312,69.289 331.409,68.292 331.409,67.494 L331.409,60.814 L331.409,60.814 Z" id="Shape"></path>
                <path d="M384.586,83.05 C382.062,84.249 377.111,85.542 371.192,85.542 C356.442,85.542 346.836,75.868 346.836,60.813 C346.836,46.254 356.539,34.887 373.133,34.887 C377.5,34.887 381.965,35.885 384.684,37.181 L382.547,46.356 C380.606,45.458 377.793,44.46 373.524,44.46 C364.399,44.46 358.965,51.341 359.064,60.214 C359.064,70.187 365.374,75.868 373.524,75.868 C377.696,75.868 380.606,74.972 382.934,73.975 L384.586,83.05 L384.586,83.05 Z" id="Shape"></path>
            </g>
            <g id="Group" transform="translate(385.000000, 40.000000)">
                <path d="M6.704,4.419 L10.194,4.419 C12.337,4.419 13.973,5.429 13.973,7.724 C13.973,9.27 13.131,10.266 11.862,10.709 L14.311,14.826 L12.459,14.826 L10.207,10.969 L8.324,10.969 L8.324,14.826 L6.703,14.826 L6.703,4.419 L6.704,4.419 L6.704,4.419 Z M10.133,9.608 C11.51,9.608 12.305,9.042 12.305,7.725 C12.305,6.379 11.494,5.843 10.133,5.843 L8.326,5.843 L8.326,9.608 L10.133,9.608 L10.133,9.608 Z" id="Shape"></path>
                <path d="M9.956,18.986 C4.901,18.986 0.788,14.872 0.788,9.816 C0.788,4.76 4.901,0.646 9.956,0.646 C15.013,0.646 19.126,4.76 19.126,9.816 C19.125,14.873 15.012,18.986 9.956,18.986 L9.956,18.986 Z M9.956,2.284 C5.805,2.284 2.427,5.663 2.427,9.816 C2.427,13.969 5.805,17.348 9.956,17.348 C14.11,17.348 17.487,13.969 17.487,9.816 C17.487,5.664 14.11,2.284 9.956,2.284 L9.956,2.284 Z" id="Shape"></path>
            </g>
        </g>
    </g>
</svg>